<?xml version="1.0" encoding="utf-8"?>
<svg version="1.1" xmlns:xlink="http://www.w3.org/1999/xlink" width="16px" height="16px" xmlns="http://www.w3.org/2000/svg">
  <defs>
    <mask fill="white" id="clip8">
      <path d="M 5.52788461538461 5.40067307692308  L 8 0.391634615384618  L 10.4721153846154 5.40067307692308  L 15.9999230769231 6.20390384615385  L 11.9999615384615 10.1029038461539  L 12.9442115384615 15.6083653846154  L 8 13.0090384615385  L 3.05578846153846 15.6083653846154  L 4.00003846153846 10.1029038461539  L 7.69230769250839E-05 6.20390384615385  L 5.52788461538461 5.40067307692308  Z " fill-rule="evenodd" />
    </mask>
  </defs>
  <g transform="matrix(1 0 0 1 -337 -230 )">
    <path d="M 5.52788461538461 5.40067307692308  L 8 0.391634615384618  L 10.4721153846154 5.40067307692308  L 15.9999230769231 6.20390384615385  L 11.9999615384615 10.1029038461539  L 12.9442115384615 15.6083653846154  L 8 13.0090384615385  L 3.05578846153846 15.6083653846154  L 4.00003846153846 10.1029038461539  L 7.69230769250839E-05 6.20390384615385  L 5.52788461538461 5.40067307692308  Z " fill-rule="nonzero" fill="#ffbe00" stroke="none" transform="matrix(1 0 0 1 337 230 )" />
    <path d="M 5.52788461538461 5.40067307692308  L 8 0.391634615384618  L 10.4721153846154 5.40067307692308  L 15.9999230769231 6.20390384615385  L 11.9999615384615 10.1029038461539  L 12.9442115384615 15.6083653846154  L 8 13.0090384615385  L 3.05578846153846 15.6083653846154  L 4.00003846153846 10.1029038461539  L 7.69230769250839E-05 6.20390384615385  L 5.52788461538461 5.40067307692308  Z " stroke-width="2" stroke="#ffbe00" fill="none" transform="matrix(1 0 0 1 337 230 )" mask="url(#clip8)" />
  </g>
</svg>