<?xml version="1.0" encoding="utf-8"?>
<svg version="1.1" xmlns:xlink="http://www.w3.org/1999/xlink" width="14px" height="14px" xmlns="http://www.w3.org/2000/svg">
  <g transform="matrix(1 0 0 1 -41 -32 )">
    <path d="M 8.3125 3.0625  C 8.3125 2.80000000000001  8.13749999999999 2.625  7.875 2.625  L 3.5 2.625  C 3.23750000000001 2.625  3.0625 2.80000000000001  3.0625 3.0625  C 3.0625 3.32499999999999  3.23750000000001 3.5  3.5 3.5  L 7.875 3.5  C 8.13749999999999 3.5  8.3125 3.32499999999999  8.3125 3.0625  Z M 8.3125 5.6875  C 8.3125 5.42500000000001  8.13749999999999 5.25  7.875 5.25  L 3.5 5.25  C 3.23750000000001 5.25  3.0625 5.42500000000001  3.0625 5.6875  C 3.0625 5.94999999999999  3.23750000000001 6.125  3.5 6.125  L 7.875 6.125  C 8.13749999999999 6.125  8.3125 5.94999999999999  8.3125 5.6875  Z M 8.3125 8.3125  C 8.3125 8.05000000000001  8.13749999999999 7.875  7.875 7.875  L 3.5 7.875  C 3.23750000000001 7.875  3.0625 8.05000000000001  3.0625 8.3125  C 3.0625 8.57499999999999  3.23750000000001 8.75  3.5 8.75  L 7.875 8.75  C 8.13749999999999 8.75  8.3125 8.57499999999999  8.3125 8.3125  Z M 14 3.0625  C 14 2.80000000000001  13.825 2.625  13.5625 2.625  L 11.375 2.625  L 11.375 0.4375  C 11.375 0.175000000000011  11.2 0  10.9375 0  L 0.4375 0  C 0.175000000000011 0  0 0.175000000000011  0 0.4375  L 0 10.9375  C 0 11.2  0.175000000000011 11.375  0.4375 11.375  L 2.625 11.375  L 2.625 13.5625  C 2.625 13.825  2.80000000000001 14  3.0625 14  L 13.5625 14  C 13.825 14  14 13.825  14 13.5625  L 14 3.0625  Z M 0.875 10.5  L 0.875 0.875  L 10.5 0.875  L 10.5 10.5  L 0.875 10.5  Z M 13.125 3.5  L 13.125 13.125  L 3.5 13.125  L 3.5 11.375  L 10.9375 11.375  C 11.2 11.375  11.375 11.2  11.375 10.9375  L 11.375 3.5  L 13.125 3.5  Z " fill-rule="nonzero" fill="#006fc8" stroke="none" transform="matrix(1 0 0 1 41 32 )" />
  </g>
</svg>