<?xml version="1.0" encoding="utf-8"?>
<svg version="1.1" xmlns:xlink="http://www.w3.org/1999/xlink" width="14px" height="14px" xmlns="http://www.w3.org/2000/svg">
  <g transform="matrix(1 0 0 1 -30 -139 )">
    <path d="M 2.33362499999998 3.29612500000002  L 3.88850000000002 3.29612500000002  C 4.1301245910895 3.29612500000002  4.32600001303854 3.49200042194903  4.32600001303854 3.73362500000002  C 4.32600001303854 3.97524957805098  4.1301245910895 4.17112500000002  3.88850001303854 4.17112500000002  L 2.33362499999998 4.17112500000002  C 2.09200042194902 4.17112500000002  1.89612499999998 3.97524957805098  1.89612499999998 3.73362500000002  C 1.89612499999998 3.49200042194903  2.09200042194902 3.29612500000002  2.33362499999998 3.29612500000002  Z M 7.77787501303851 3.29612500000002  C 8.01949959108947 3.29612500000002  8.21537501303851 3.49200042194903  8.21537501303851 3.73362500000002  C 8.21537501303851 3.97524957805098  8.01949959108947 4.17112500000002  7.77787501303851 4.17112500000002  L 6.22125 4.17112500000002  C 5.97962542194904 4.17112500000002  5.78375 3.97524957805098  5.78375 3.73362500000002  C 5.78375 3.49200042194903  5.97962542194904 3.29612500000002  6.22125 3.29612500000002  L 7.77875 3.29612500000002  Z M 10.1115 3.29612500000002  L 11.666375 3.29612500000002  C 11.9079995910895 3.29612500000002  12.1038750130385 3.49200042194903  12.1038750130385 3.73362500000002  C 12.1038750130385 3.97524957805098  11.9079995910895 4.17112500000002  11.6663750130385 4.17112500000002  L 10.1115 4.17112500000002  C 9.86987542194902 4.17112500000002  9.67399999999998 3.97524957805098  9.67399999999998 3.73362500000002  C 9.67399999999998 3.49200042194903  9.86987542194902 3.29612500000002  10.1115 3.29612500000002  Z M 2.33362499999998 6.09612499999997  L 3.88850000000002 6.09612499999997  C 4.13012457805098 6.09612499999997  4.32600000000002 6.29200042194904  4.32600000000002 6.53362499999997  C 4.32600000000002 6.77524957805096  4.13012457805098 6.97112499999997  3.88850000000002 6.97112499999997  L 2.33362499999998 6.97112499999997  C 2.09200042194902 6.97112499999997  1.89612499999998 6.77524957805096  1.89612499999998 6.53362499999997  C 1.89612499999998 6.29200042194904  2.09200042194902 6.09612499999997  2.33362499999998 6.09612499999997  Z M 7.77787499999999 6.09612499999997  C 8.01949957805095 6.09612499999997  8.21537499999999 6.29200042194904  8.21537499999999 6.53362499999997  C 8.21537499999999 6.77524957805096  8.01949957805095 6.97112499999997  7.77787499999999 6.97112499999997  L 6.22125 6.97112499999997  C 5.97962542194904 6.97112499999997  5.78375 6.77524957805096  5.78375 6.53362499999997  C 5.78375 6.29200042194904  5.97962542194904 6.09612499999997  6.22125 6.09612499999997  L 7.77875 6.09612499999997  Z M 2.33362499999998 8.89612500000001  L 3.88850000000002 8.89612500000001  C 4.13012457805098 8.89612500000001  4.32600000000002 9.09200042194902  4.32600000000002 9.33362500000001  C 4.32600000000002 9.57524957805097  4.13012457805098 9.77112500000001  3.88850000000002 9.77112500000001  L 2.33362499999998 9.77112500000001  C 2.09200042194902 9.77112500000001  1.89612499999998 9.57524957805097  1.89612499999998 9.33362500000001  C 1.89612499999998 9.09200042194902  2.09200042194902 8.89612500000001  2.33362499999998 8.89612500000001  Z M 7.77787499999999 8.89612500000001  C 8.01949957805095 8.89612500000001  8.21537499999999 9.09200042194902  8.21537499999999 9.33362500000001  C 8.21537499999999 9.57524957805097  8.01949957805095 9.77112500000001  7.77787499999999 9.77112500000001  L 6.22125 9.77112500000001  C 5.97962542194904 9.77112500000001  5.78375 9.57524957805097  5.78375 9.33362500000001  C 5.78375 9.09200042194902  5.97962542194904 8.89612500000001  6.22125 8.89612500000001  L 7.77875 8.89612500000001  Z M 11.692625 7.216125  C 11.692625 6.80681296478164  11.3608120352184 6.47499999999997  10.9515 6.47499999999997  C 10.5421879647816 6.47499999999997  10.210375 6.80681296478164  10.210375 7.216125  L 10.210375 11.806375  L 10.9515 12.93075  L 11.692625 11.806375  L 11.692625 7.216125  Z M 9.335375 7.216125  C 9.335375 6.32362499999999  10.059 5.59999999999997  10.9515 5.59999999999997  C 11.844 5.59999999999997  12.567625 6.32362499999999  12.567625 7.216125  L 12.567625 11.806375  C 12.5675822312681 11.9774563372491  12.5173875071591 12.1447720842791  12.42325 12.287625  L 11.682125 13.412  C 11.520233353754 13.657669311345  11.2457147441257 13.8055312996933  10.9515 13.8055312996933  C 10.6572852558742 13.8055312996933  10.3827666462461 13.657669311345  10.220875 13.412  L 9.47975000000002 12.287625  C 9.38561249284089 12.1447720842791  9.33541776873187 11.9774563372491  9.335375 11.806375  L 9.335375 7.216125  Z M 12.25 13.125  L 11.8475 13.125  L 11.8475 12.25  L 12.25 12.25  C 12.7332491561019 12.25  13.125 11.8582491561019  13.125 11.375  L 13.125 1.75  C 13.125 1.26675084389808  12.7332491561019 0.875  12.25 1  L 1.75 1  C 1.26675084389808 0.875  0.875 1.26675084389808  0.875 1.75  L 0.875 11.375  C 0.875 11.8582491561019  1.26675084389808 12.25  1.75 12.25  L 10.266375 12.25  L 10.266375 13.125  L 1.75 13.125  C 0.783501687796104 13.125  0 12.3414983122039  0 11.375  L 0 1.75  C 0 0.783501687796104  0.783501687796104 0  1.75 0  L 12.25 0  C 13.2164983122039 0  14 0.783501687796104  14 1.75  L 14 11.375  C 14 12.3414983122039  13.2164983122039 13.125  12.25 13.125  Z M 12.25 13.125  L 11.8475 13.125  L 11.8475 12.25  L 12.25 12.25  C 12.7332491561019 12.25  13.125 11.8582491561019  13.125 11.375  L 13.125 1.75  C 13.125 1.26675084389808  12.7332491561019 0.875  12.25 1  L 1.75 1  C 1.26675084389808 0.875  0.875 1.26675084389808  0.875 1.75  L 0.875 11.375  C 0.875 11.8582491561019  1.26675084389808 12.25  1.75 12.25  L 10.266375 12.25  L 10.266375 13.125  L 1.75 13.125  C 0.783501687796104 13.125  0 12.3414983122039  0 11.375  L 0 1.75  C 0 0.783501687796104  0.783501687796104 0  1.75 0  L 12.25 0  C 13.2164983122039 0  14 0.783501687796104  14 1.75  L 14 11.375  C 14 12.3414983122039  13.2164983122039 13.125  12.25 13.125  Z " fill-rule="nonzero" fill="#303030" stroke="none" transform="matrix(1 0 0 1 30 139 )" />
  </g>
</svg>