<?xml version="1.0" encoding="utf-8"?>
<svg version="1.1" xmlns:xlink="http://www.w3.org/1999/xlink" width="14px" height="13px" xmlns="http://www.w3.org/2000/svg">
  <g transform="matrix(1 0 0 1 -30 -78 )">
    <path d="M 12.215875 6.12056666666668  C 12.215875 5.41531666666667  12.859175 4.84166666666668  13.65 4.84166666666668  C 13.8432 4.84166666666668  14 4.68486666666666  14 4.49166666666666  C 14 4.29846666666667  13.8432 4.14166666666665  13.65 4.14166666666665  C 12.859175 4.14166666666665  12.215875 3.56801666666668  12.215875 2.86276666666666  L 12.215875 2.27039166666665  C 12.215875 1.56531666666666  12.859175 0.99166666666666  13.65 0.99166666666666  C 13.8432 0.99166666666666  14 0.83486666666667  14 0.641666666666652  C 14 0.448466666666676  13.8432 0.291666666666657  13.65 0.291666666666657  L 1.64762500000001 0.291666666666657  C 0.739199999999983 0.291666666666657  0 0.980116666666675  0 1.82624166666666  L 0 3.30709166666666  C 0 3.78361666666667  0.234499999999969 4.20991666666666  0.601474999999994 4.49166666666666  C 0.234499999999969 4.77341666666666  0 5.19989166666667  0 5.67641666666668  L 0 7.15709166666666  C 0 7.63361666666667  0.234499999999969 8.05991666666668  0.601474999999994 8.3416666666667  C 0.234499999999969 8.62341666666669  0 9.04989166666667  0 9.52641666666666  L 0 11.0070916666667  C 0 11.8532166666667  0.739199999999983 12.5416666666667  1.64762500000001 12.5416666666667  L 13.65 12.5416666666667  C 13.8432 12.5416666666667  14 12.3848666666667  14 12.1916666666667  C 14 11.9984666666667  13.8432 11.8416666666667  13.65 11.8416666666667  C 12.859175 11.8416666666667  12.215875 11.2680166666667  12.215875 10.5627666666667  L 12.215875 9.97056666666668  C 12.215875 9.26531666666666  12.859175 8.69166666666668  13.65 8.69166666666668  C 13.8432 8.69166666666668  14 8.53486666666667  14 8.3416666666667  C 14 8.14846666666668  13.8432 7.99166666666666  13.65 7.99166666666666  C 12.859175 7.99166666666666  12.215875 7.41801666666667  12.215875 6.71276666666667  L 12.215875 6.12056666666668  Z M 11.5158749999999 6.71294166666668  C 11.5158749999999 7.19996666666668  11.7068 7.64656666666667  12.022675 7.99166666666666  L 7.34999999999997 7.99166666666666  C 7.15662499999996 7.99166666666666  7 8.14829166666668  7 8.3416666666667  C 7 8.5350416666667  7.15662499999996 8.69166666666668  7.34999999999997 8.69166666666668  L 12.022675 8.69166666666668  C 11.706625 9.03694166666668  11.5158749999999 9.48336666666668  11.5158749999999 9.97056666666668  L 11.5158749999999 10.5627666666667  C 11.5158749999999 11.0497916666667  11.706625 11.4963916666667  12.022675 11.8416666666667  L 1.64762500000001 11.8416666666667  C 1.12507499999998 11.8416666666667  0.699999999999989 11.4673416666667  0.699999999999989 11.0070916666667  L 0.699999999999989 9.52641666666666  C 0.699999999999989 9.06616666666667  1.12507499999998 8.69166666666668  1.64762500000001 8.69166666666668  L 2.44999999999999 8.69166666666668  C 2.64337499999999 8.69166666666668  2.80000000000001 8.53504166666667  2.80000000000001 8.3416666666667  C 2.80000000000001 8.14829166666668  2.64337499999999 7.99166666666666  2.44999999999999 7.99166666666666  L 1.64762500000001 7.99166666666666  C 1.12507499999998 7.99166666666666  0.699999999999989 7.61734166666668  0.699999999999989 7.15709166666666  L 0.699999999999989 5.67641666666668  C 0.699999999999989 5.21616666666668  1.12507499999998 4.84166666666668  1.64762500000001 4.84166666666668  L 2.44999999999999 4.84166666666668  C 2.64337499999999 4.84166666666668  2.80000000000001 4.68504166666666  2.80000000000001 4.49166666666666  C 2.80000000000001 4.29829166666669  2.64337499999999 4.14166666666665  2.44999999999999 4.14166666666665  L 1.64762500000001 4.14166666666665  C 1.12507499999998 4.14166666666665  0.699999999999989 3.76734166666668  0.699999999999989 3.30709166666666  L 0.699999999999989 1.82624166666666  C 0.699999999999989 1.36599166666666  1.12507499999998 0.99166666666666  1.64762500000001 1  L 12.022675 1  C 11.7068 1.33676666666665  11.5158749999999 1.78336666666665  11.5158749999999 2.27056666666668  L 11.5158749999999 2.86294166666669  C 11.5158749999999 3.34996666666666  11.706625 3.79656666666666  12.022675 4.14184166666668  L 7.34999999999997 4.14184166666668  C 7.15662499999996 4.14184166666668  7 4.29846666666667  7 4.49184166666667  C 7 4.68521666666668  7.15662499999996 4.84184166666665  7.34999999999997 4.84184166666665  L 12.022675 4.84184166666665  C 11.706625 5.18711666666667  11.5158749999999 5.63354166666667  11.5158749999999 6.12074166666667  L 11.5158749999999 6.71294166666668  Z M 3.15000000000003 10.3079666666667  C 3.15000000000003 10.4439416666667  3.298225 10.5279416666667  3.41494999999998 10.4581166666667  L 4.90000000000003 9.56911666666669  L 6.38505000000004 10.4581166666667  C 6.50177500000001 10.5279416666667  6.65000000000003 10.4439416666667  6.65000000000003 10.3079666666667  L 6.65000000000003 3.26666666666667  C 6.65000000000003 2.88009166666667  6.33657500000004 2.56666666666668  5.94999999999999 2.56666666666668  L 3.84999999999997 2.56666666666668  C 3.46342499999997 2.56666666666668  3.15000000000003 2.88009166666667  3.15000000000003 3.26666666666667  L 3.15000000000003 10.3079666666667  Z M 3.84999999999997 3.61666666666666  C 3.84999999999997 3.42346666666667  4.0068 3.26666666666667  4.19999999999999 3.26666666666667  L 5.59999999999997 3.26666666666667  C 5.79337499999997 3.26666666666667  5.94999999999999 3.42329166666669  5.94999999999999 3.61666666666666  L 5.94999999999999 9.49754166666666  L 4.90000000000003 8.86911666666668  L 3.84999999999997 9.49754166666666  L 3.84999999999997 3.61666666666666  Z " fill-rule="nonzero" fill="#303030" stroke="none" transform="matrix(1 0 0 1 30 78 )" />
  </g>
</svg>