<?xml version="1.0" encoding="utf-8"?>
<svg version="1.1" xmlns:xlink="http://www.w3.org/1999/xlink" width="12px" height="12px" viewBox="341 78  12 12" xmlns="http://www.w3.org/2000/svg">
  <path d="M 347 78  C 350.36 78  353 80.64  353 84  C 353 87.36  350.36 90  347 90  C 343.64 90  341 87.36  341 84  C 341 80.64  343.64 78  347 78  Z " fill-rule="nonzero" fill="#ffffff" stroke="none" />
  <path d="M 347 78.5  C 350.08 78.5  352.5 80.92  352.5 84  C 352.5 87.08  350.08 89.5  347 89.5  C 343.92 89.5  341.5 87.08  341.5 84  C 341.5 80.92  343.92 78.5  347 78.5  Z " stroke-width="1" stroke="#797979" fill="none" />
  <path d="M 347 87  C 345.32 87  344 85.68  344 84  C 344 82.32  345.32 81  347 81  C 348.68 81  350 82.32  350 84  C 350 85.68  348.68 87  347 87  " fill-rule="nonzero" fill="#797979" stroke="none" />
</svg>