<?xml version="1.0" encoding="utf-8"?>
<svg version="1.1" xmlns:xlink="http://www.w3.org/1999/xlink" width="12px" height="12px" viewBox="261 78  12 12" xmlns="http://www.w3.org/2000/svg">
  <path d="M 267 78  C 270.36 78  273 80.64  273 84  C 273 87.36  270.36 90  267 90  C 263.64 90  261 87.36  261 84  C 261 80.64  263.64 78  267 78  Z " fill-rule="nonzero" fill="#ffffff" stroke="none" />
  <path d="M 267 78.5  C 270.08 78.5  272.5 80.92  272.5 84  C 272.5 87.08  270.08 89.5  267 89.5  C 263.92 89.5  261.5 87.08  261.5 84  C 261.5 80.92  263.92 78.5  267 78.5  Z " stroke-width="1" stroke="#797979" fill="none" />
  <path d="M 267 87  C 265.32 87  264 85.68  264 84  C 264 82.32  265.32 81  267 81  C 268.68 81  270 82.32  270 84  C 270 85.68  268.68 87  267 87  " fill-rule="nonzero" fill="#797979" stroke="none" />
</svg>