<?xml version="1.0" encoding="utf-8"?>
<svg version="1.1" xmlns:xlink="http://www.w3.org/1999/xlink" width="12px" height="12px" viewBox="221 78  12 12" xmlns="http://www.w3.org/2000/svg">
  <path d="M 227 78  C 230.36 78  233 80.64  233 84  C 233 87.36  230.36 90  227 90  C 223.64 90  221 87.36  221 84  C 221 80.64  223.64 78  227 78  Z " fill-rule="nonzero" fill="#ffffff" stroke="none" />
  <path d="M 227 78.5  C 230.08 78.5  232.5 80.92  232.5 84  C 232.5 87.08  230.08 89.5  227 89.5  C 223.92 89.5  221.5 87.08  221.5 84  C 221.5 80.92  223.92 78.5  227 78.5  Z " stroke-width="1" stroke="#797979" fill="none" />
  <path d="M 227 87  C 225.32 87  224 85.68  224 84  C 224 82.32  225.32 81  227 81  C 228.68 81  230 82.32  230 84  C 230 85.68  228.68 87  227 87  " fill-rule="nonzero" fill="#797979" stroke="none" />
</svg>